<?xml version="1.0" standalone="no"?>
<!DOCTYPE svg PUBLIC "-//W3C//DTD SVG 20010904//EN"
 "http://www.w3.org/TR/2001/REC-SVG-20010904/DTD/svg10.dtd">
<svg version="1.0" xmlns="http://www.w3.org/2000/svg"
 width="256.000000pt" height="256.000000pt" viewBox="0 0 256.000000 256.000000"
 preserveAspectRatio="xMidYMid meet">

<g transform="translate(0.000000,256.000000) scale(0.100000,-0.100000)"
fill="#000000" stroke="none">
<path d="M1625 2314 c-187 -48 -305 -146 -361 -298 -77 -212 -7 -426 182 -556
42 -30 148 -70 184 -70 19 0 20 -6 20 -150 0 -137 2 -152 20 -170 25 -25 35
-25 60 0 18 18 20 33 20 168 l0 148 53 11 c74 16 135 46 198 100 112 95 164
210 163 358 -1 251 -192 449 -444 460 -41 2 -84 2 -95 -1z m228 -122 c65 -29
148 -110 183 -179 26 -53 29 -67 29 -158 0 -89 -3 -107 -28 -160 -36 -78 -104
-146 -181 -182 -53 -24 -73 -28 -156 -28 -83 0 -103 4 -156 28 -97 45 -175
136 -203 239 -20 70 -10 192 19 254 44 90 134 171 223 200 63 21 210 13 270
-14z"/>
<path d="M665 1576 c-8 -13 -13 -30 -9 -39 3 -8 41 -39 85 -67 43 -29 76 -56
73 -61 -3 -5 -38 -31 -78 -59 -79 -52 -92 -70 -76 -101 16 -29 59 -23 115 17
90 64 85 66 85 -30 l0 -84 -41 -7 c-69 -12 -172 -70 -228 -130 -167 -176 -165
-446 4 -618 167 -171 456 -174 623 -7 141 141 174 338 87 517 -57 115 -189
218 -306 238 l-39 7 0 84 c0 96 -5 94 85 30 56 -40 99 -46 115 -17 16 31 3 49
-76 101 -40 28 -75 54 -78 59 -3 5 30 32 73 60 43 29 81 61 84 71 6 24 -19 60
-41 60 -9 0 -61 -30 -114 -66 l-98 -66 -97 66 c-54 36 -106 66 -115 66 -10 0
-24 -11 -33 -24z m395 -552 c72 -32 131 -93 168 -172 23 -48 27 -71 27 -142 0
-72 -4 -94 -28 -146 -35 -76 -94 -135 -172 -171 -51 -24 -73 -28 -145 -28 -72
0 -94 4 -145 28 -78 36 -137 95 -172 171 -24 52 -28 74 -28 146 0 71 4 94 26
141 48 102 131 172 236 199 63 16 166 4 233 -26z"/>
</g>
</svg>
