<?xml version="1.0" standalone="no"?>
<!DOCTYPE svg PUBLIC "-//W3C//DTD SVG 20010904//EN"
 "http://www.w3.org/TR/2001/REC-SVG-20010904/DTD/svg10.dtd">
<svg version="1.0" xmlns="http://www.w3.org/2000/svg"
 width="256.000000pt" height="256.000000pt" viewBox="0 0 256.000000 256.000000"
 preserveAspectRatio="xMidYMid meet">

<g transform="translate(0.000000,256.000000) scale(0.100000,-0.100000)"
fill="#000000" stroke="none">
<path d="M1122 1990 c-225 -59 -404 -240 -462 -466 -40 -154 -18 -325 57 -466
42 -77 121 -171 177 -209 20 -13 36 -26 36 -29 0 -3 -28 -19 -62 -35 -91 -43
-173 -99 -241 -163 -60 -57 -133 -146 -156 -190 -25 -47 17 -112 72 -112 31 0
44 12 137 122 86 102 209 188 326 228 235 82 472 60 679 -62 65 -39 181 -145
266 -246 41 -48 81 -56 117 -22 47 44 41 74 -33 170 -89 115 -208 211 -343
275 -34 16 -62 32 -62 35 0 3 16 16 36 29 56 38 135 132 177 209 136 253 90
559 -113 762 -163 163 -391 226 -608 170z m315 -171 c119 -41 201 -112 261
-230 78 -149 78 -288 2 -445 -141 -289 -528 -354 -754 -126 -61 62 -121 181
-136 273 -30 179 59 382 209 478 123 79 279 98 418 50z"/>
<path d="M2145 1235 c-19 -18 -25 -35 -25 -67 0 -40 -3 -45 -38 -64 -38 -20
-39 -20 -73 -2 -46 24 -75 23 -104 -7 -42 -41 -30 -102 25 -130 27 -14 30 -20
30 -65 0 -45 -3 -51 -30 -65 -55 -28 -67 -89 -25 -130 29 -30 58 -31 104 -7
34 18 35 18 73 -2 34 -19 38 -25 38 -62 0 -30 7 -48 25 -68 52 -57 135 -15
135 68 0 37 4 43 38 62 38 20 39 20 73 2 46 -24 75 -23 104 7 42 41 30 102
-25 130 -27 14 -30 20 -30 65 0 45 3 51 30 65 55 28 67 89 25 130 -29 30 -58
31 -104 7 -34 -18 -35 -18 -73 2 -35 19 -38 24 -38 64 0 54 -33 92 -80 92 -19
0 -40 -9 -55 -25z m110 -280 c32 -31 32 -74 0 -109 -48 -51 -135 -16 -135 56
0 39 40 78 80 78 19 0 40 -9 55 -25z"/>
</g>
</svg>
